<?xml version="1.0" standalone="no"?>
<!DOCTYPE svg PUBLIC "-//W3C//DTD SVG 20010904//EN"
 "http://www.w3.org/TR/2001/REC-SVG-20010904/DTD/svg10.dtd">
<svg version="1.0" xmlns="http://www.w3.org/2000/svg"
 width="512.000000pt" height="512.000000pt" viewBox="0 0 512.000000 512.000000"
 preserveAspectRatio="xMidYMid meet">
<metadata>
Created by potrace 1.15, written by Peter Selinger 2001-2017
</metadata>
<g transform="translate(0.000000,512.000000) scale(0.100000,-0.100000)"
fill="#000000" stroke="none">
<path d="M1422 4949 c-30 -5 -88 -21 -130 -35 -311 -107 -536 -348 -629 -678
-17 -57 -18 -166 -18 -1636 l0 -1575 23 -47 c47 -94 146 -167 243 -176 l48 -4
3 -207 c3 -192 5 -209 26 -253 30 -60 90 -120 150 -150 45 -22 56 -23 302 -23
246 0 257 1 302 23 60 30 120 90 150 150 21 44 23 61 26 254 l3 208 639 0 639
0 3 -208 c3 -193 5 -210 26 -254 30 -60 90 -120 150 -150 45 -22 56 -23 302
-23 246 0 257 1 302 23 60 30 120 90 150 150 21 44 23 61 26 253 l3 207 48 4
c97 9 196 82 243 176 l23 47 0 1575 c0 1745 5 1599 -64 1769 -93 228 -294 429
-522 522 -167 68 -69 63 -1299 65 -628 1 -1138 -2 -1168 -7z m1778 -469 l0
-160 -640 0 -640 0 0 160 0 160 640 0 640 0 0 -160z m960 -1440 l0 -960 -1600
0 -1600 0 0 960 0 960 1600 0 1600 0 0 -960z m-2742 -1319 c103 -53 163 -145
170 -261 5 -96 -21 -170 -82 -234 -63 -64 -116 -88 -206 -94 -100 -5 -172 21
-240 88 -155 156 -100 429 102 509 71 28 193 25 256 -8z m2536 8 c64 -24 134
-87 167 -150 33 -65 38 -176 9 -251 -25 -67 -87 -136 -151 -169 -65 -33 -176
-38 -251 -9 -67 25 -136 87 -169 151 -34 66 -38 176 -9 252 59 158 242 237
404 176z"/>
</g>
</svg>
